<?xml version="1.0" encoding="UTF-8"?>
<!DOCTYPE svg PUBLIC "-//W3C//DTD SVG 1.1//EN" "http://www.w3.org/Graphics/SVG/1.1/DTD/svg11.dtd">
<!-- Creator: CorelDRAW 2021.5 -->
<svg xmlns="http://www.w3.org/2000/svg" xml:space="preserve" width="2556px" height="2300px" version="1.1" style="shape-rendering:geometricPrecision; text-rendering:geometricPrecision; image-rendering:optimizeQuality; fill-rule:evenodd; clip-rule:evenodd"
viewBox="0 0 2888.55 2598.72"
 xmlns:xlink="http://www.w3.org/1999/xlink"
 xmlns:xodm="http://www.corel.com/coreldraw/odm/2003">
 <defs>
  <style type="text/css">
   <![CDATA[
    .str0 {stroke:white;stroke-width:91.62;stroke-miterlimit:22.9256}
    .fil0 {fill:none}
    .fil1 {fill:#3E4245;fill-opacity:0.000000}
   ]]>
  </style>
 </defs>
 <g id="Слой_x0020_1">
  <metadata id="CorelCorpID_0Corel-Layer"/>
  <g id="_2920851489168">
   <polygon class="fil0" points="0,0 2888.55,0 2888.55,2598.72 0,2598.72 "/>
   <g id="_2096361369456">
    <g id="icomoon-ignore">
    </g>
    <path class="fil0 str0" d="M1083.48 2099.79c0,117 -94.61,211.77 -210.67,211.77 -117.16,0 -211.78,-94.77 -211.78,-211.77 0,-116.06 94.62,-210.83 211.78,-210.83 116.06,0 210.67,94.77 210.67,210.83z"/>
    <path class="fil0 str0" d="M2494.48 2099.79c0,117 -94.61,211.77 -211.77,211.77 -117.01,0 -211.62,-94.77 -211.62,-211.77 0,-116.06 94.61,-210.83 211.62,-210.83 117.16,0 211.77,94.77 211.77,210.83z"/>
    <path class="fil0 str0" d="M2494.48 1183.46l0 -846.01 -1692.95 0c0,-78.37 -63.23,-141.44 -140.5,-141.44l-423.55 0 0 141.44 281.95 0 105.96 908.14c-64.17,50.93 -105.96,130.25 -105.96,219.97 0,155.64 126.31,281.95 282.1,281.95l1692.95 0 0 -140.5 -1692.95 0c-77.42,0 -140.5,-63.08 -140.5,-141.45 0,0 0,-1.1 0,-1.1l1833.45 -281 0 0 0 0 0 0z"/>
   </g>
  </g>
  <polygon class="fil1" points="178.77,149.81 2564.01,149.81 2564.01,2372.72 178.77,2372.72 "/>
 </g>
</svg>
