<?xml version="1.0" encoding="UTF-8"?>
<!DOCTYPE svg PUBLIC "-//W3C//DTD SVG 1.1//EN" "http://www.w3.org/Graphics/SVG/1.1/DTD/svg11.dtd">
<!-- Creator: CorelDRAW 2021.5 -->
<svg xmlns="http://www.w3.org/2000/svg" xml:space="preserve" width="2105px" height="2093px" version="1.1" style="shape-rendering:geometricPrecision; text-rendering:geometricPrecision; image-rendering:optimizeQuality; fill-rule:evenodd; clip-rule:evenodd"
viewBox="0 0 2185.3 2173.12"
 xmlns:xlink="http://www.w3.org/1999/xlink"
 xmlns:xodm="http://www.corel.com/coreldraw/odm/2003">
 <defs>
  <style type="text/css">
   <![CDATA[
    .str0 {stroke:white;stroke-width:84.23;stroke-miterlimit:22.9256}
    .fil0 {fill:none}
    .fil1 {fill:#3E4245;fill-opacity:0.000000}
   ]]>
  </style>
 </defs>
 <g id="Слой_x0020_1">
  <metadata id="CorelCorpID_0Corel-Layer"/>
  <g id="_2030130924384">
   <g id="_2131711339792">
    <g id="icomoon-ignore">
    </g>
    <path class="fil0 str0" d="M1099.97 236.37c276.82,0 309.97,1.38 419.03,6.22 101.49,4.14 156.03,21.4 192.61,35.21 48.33,18.62 82.84,41.41 118.74,77.31 36.58,36.59 58.67,71.1 77.99,119.43 14.52,36.58 31.07,91.82 35.9,192.61 4.84,109.06 5.54,142.21 5.54,419.02 0,276.84 -0.7,309.97 -5.54,419.03 -4.83,100.79 -21.38,156.03 -35.9,192.61 -18.64,47.64 -41.41,82.84 -77.31,118.74 -36.58,36.58 -71.1,58.67 -119.42,78.01 -36.58,13.8 -91.13,31.06 -192.61,35.2 -109.06,5.52 -142.21,6.22 -418.35,6.22 -276.81,0 -310.64,-0.7 -419.02,-6.22 -101.49,-4.14 -156.01,-21.4 -192.61,-35.2 -48.33,-18.64 -83.53,-41.43 -119.43,-77.32 -36.58,-36.59 -58.67,-71.1 -78.01,-119.43 -13.79,-36.58 -31.05,-91.82 -35.2,-192.61 -4.83,-109.06 -6.21,-142.19 -6.21,-419.03 0,-276.81 1.38,-309.96 6.21,-419.02 4.15,-100.79 21.41,-156.03 35.2,-191.91 18.64,-48.33 41.43,-83.54 78.01,-119.44 35.9,-36.59 70.42,-58.67 118.75,-78 36.58,-13.81 91.8,-31.07 192.6,-35.21 109.07,-4.84 141.52,-6.22 419.03,-6.22l0 0 0 0zm0 -187.07c-281.66,0 -316.86,1.38 -427.32,6.21 -110.45,4.83 -186.4,22.77 -251.96,48.33 -68.35,26.92 -126.34,62.12 -183.63,120.1 -57.99,57.31 -93.21,115.3 -120.13,183.63 -25.53,65.59 -43.49,140.83 -48.32,251.3 -4.83,111.14 -6.22,146.34 -6.22,428.01 0,281.64 1.39,316.86 6.22,427.3 4.83,110.47 22.79,186.4 48.32,251.98 26.92,68.33 62.14,126.32 120.13,183.63 57.29,57.99 115.28,93.19 183.63,119.42 65.56,25.54 140.83,43.5 251.27,48.33 110.45,4.83 145.67,6.22 427.31,6.22 281.66,0 316.88,-1.39 428.01,-6.22 109.76,-4.83 185.71,-22.77 251.3,-48.33 68.33,-26.23 126.32,-61.43 183.62,-119.42 57.29,-57.31 93.19,-115.3 119.43,-183.63 25.54,-65.58 43.49,-141.51 48.32,-251.28 4.84,-110.46 6.22,-146.36 6.22,-427.32 0,-281.66 -1.38,-317.55 -6.22,-428.01 -4.83,-109.76 -22.78,-185.69 -48.32,-251.28 -25.54,-69.03 -60.76,-127.02 -118.74,-184.33 -57.29,-57.98 -115.28,-93.18 -183.63,-120.1 -65.59,-25.54 -141.52,-42.82 -251.28,-47.65 -111.14,-5.51 -146.36,-6.89 -428.01,-6.89l0 0 0 0 0 0z"/>
    <path class="fil0 str0" d="M1099.97 553.94c-294.09,0 -532.94,238.85 -532.94,532.94 0,294.07 238.85,532.92 532.94,532.92 294.08,0 532.94,-238.85 532.94,-532.92 0,-294.09 -238.86,-532.94 -532.94,-532.94zm0 878.78c-191.22,0 -345.86,-155.32 -345.86,-345.85 0,-191.22 154.64,-345.86 345.86,-345.86 190.53,0 345.87,154.64 345.87,345.86 0,190.53 -155.34,345.85 -345.87,345.85z"/>
    <path class="fil0 str0" d="M1778.58 532.53c0,69.03 -55.93,124.95 -124.96,124.95 -68.35,0 -124.26,-55.92 -124.26,-124.95 0,-68.34 55.91,-124.26 124.26,-124.26 69.03,0 124.96,55.92 124.96,124.26z"/>
   </g>
  </g>
  <polygon class="fil1" points="0,0 2185.3,0 2185.3,2173.12 0,2173.12 "/>
 </g>
</svg>
