<?xml version="1.0" encoding="UTF-8"?>
<!DOCTYPE svg PUBLIC "-//W3C//DTD SVG 1.1//EN" "http://www.w3.org/Graphics/SVG/1.1/DTD/svg11.dtd">
<!-- Creator: CorelDRAW 2021.5 -->
<svg xmlns="http://www.w3.org/2000/svg" xml:space="preserve" width="1352px" height="2108px" version="1.1" style="shape-rendering:geometricPrecision; text-rendering:geometricPrecision; image-rendering:optimizeQuality; fill-rule:evenodd; clip-rule:evenodd"
viewBox="0 0 1782.72 2780.43"
 xmlns:xlink="http://www.w3.org/1999/xlink"
 xmlns:xodm="http://www.corel.com/coreldraw/odm/2003">
 <defs>
  <style type="text/css">
   <![CDATA[
    .str0 {stroke:white;stroke-width:107.08;stroke-miterlimit:22.9256}
    .fil0 {fill:none}
    .fil1 {fill:#3E4245;fill-opacity:0.000000}
   ]]>
  </style>
 </defs>
 <g id="Слой_x0020_1">
  <metadata id="CorelCorpID_0Corel-Layer"/>
  <g id="_2030404795824">
   <g id="_2131607358064">
    <g id="icomoon-ignore">
    </g>
    <path class="fil0 str0" d="M884.82 55.45c-454.48,0 -822.5,368.05 -822.5,822.51 0,822.11 822.5,1808.81 822.5,1808.81 0,0 822.12,-986.7 822.12,-1808.81 0,-454.46 -368.05,-822.51 -822.12,-822.51zm0 1315.87c-272.45,0 -493.36,-220.91 -493.36,-493.36 0,-272.43 220.91,-493.34 493.36,-493.34 272.46,0 493.34,220.91 493.34,493.34 0,272.46 -220.88,493.36 -493.34,493.36z"/>
   </g>
  </g>
  <polygon class="fil1" points="0,0 1782.72,0 1782.72,2780.43 0,2780.43 "/>
 </g>
</svg>
