<?xml version="1.0" encoding="UTF-8"?>
<!DOCTYPE svg PUBLIC "-//W3C//DTD SVG 1.1//EN" "http://www.w3.org/Graphics/SVG/1.1/DTD/svg11.dtd">
<!-- Creator: CorelDRAW 2021.5 -->
<svg xmlns="http://www.w3.org/2000/svg" xml:space="preserve" width="1000px" height="1000px" version="1.1" style="shape-rendering:geometricPrecision; text-rendering:geometricPrecision; image-rendering:optimizeQuality; fill-rule:evenodd; clip-rule:evenodd"
viewBox="0 0 497.46 497.47"
 xmlns:xlink="http://www.w3.org/1999/xlink"
 xmlns:xodm="http://www.corel.com/coreldraw/odm/2003">
 <defs>
  <style type="text/css">
   <![CDATA[
    .fil1 {fill:none}
    .fil0 {fill:#51A548;fill-rule:nonzero}
   ]]>
  </style>
 </defs>
 <g id="Слой_x0020_1">
  <metadata id="CorelCorpID_0Corel-Layer"/>
  <path class="fil0" d="M367.24 303.68c-11.3,11.32 -18.43,22.87 -24.53,32.73 -12.14,19.66 -20.93,33.88 -46.33,33.88 -36.09,0 -69.34,-33.25 -102.67,-66.57l-0.02 -0.02 0 -0.04 -0.43 -0.43c-33.11,-33.19 -66.15,-66.31 -66.15,-102.21 0,-25.33 14.2,-34.11 33.81,-46.23 9.89,-6.11 21.47,-13.27 32.77,-24.61l0 -0.04c2.34,-2.34 3.38,-5.53 3.38,-9.29 0,-8.33 -4.38,-18.89 -11.29,-30.03 -7.37,-11.89 -17.62,-24.23 -28.69,-35.31 -19.73,-19.73 -40.95,-34.81 -51.44,-34.81 -23.54,0 -74.62,72.96 -84.89,88 0.99,30.02 16.34,74.48 38.67,119.15 23.62,47.25 54.94,94.35 85.35,124.77 30.42,30.41 77.53,61.74 124.79,85.38 44.68,22.35 89.14,37.71 119.13,38.71 15.04,-10.29 88.06,-61.42 88.06,-84.96 0,-10.48 -15.05,-31.66 -34.76,-51.37 -11.09,-11.09 -23.45,-21.35 -35.37,-28.74 -11.16,-6.92 -21.74,-11.31 -30.08,-11.31 -3.76,0 -6.96,1.03 -9.3,3.37l-0.01 -0.02zm-42.08 21.9c6.16,-9.97 13.28,-21.5 24.42,-33.34l0 -0.15 3.04 -3.03c6.54,-6.55 14.72,-9.44 23.93,-9.44 12.39,0 26.65,5.62 40.92,14.47 13.52,8.38 27.18,19.66 39.17,31.65 23.15,23.15 40.82,50.13 40.82,66.01 0,37.28 -99.69,103.74 -99.98,103.94l-2.65 1.78 -3.09 0c-33.13,0 -82.47,-16.57 -131.39,-41.03 -49.2,-24.61 -98.35,-57.32 -130.21,-89.18 -31.86,-31.87 -64.56,-81 -89.15,-130.19 -24.44,-48.91 -40.99,-98.25 -40.99,-131.41l0 -3.09 1.78 -2.66c0.19,-0.28 66.59,-99.91 103.87,-99.91 15.89,0 42.91,17.7 66.08,40.87 11.97,11.98 23.23,25.62 31.6,39.11 8.84,14.25 14.44,28.49 14.44,40.87 0,9.21 -2.89,17.38 -9.44,23.93l-0.02 -0.02c-12.97,13 -25.69,20.86 -36.55,27.58 -13.89,8.59 -23.95,14.8 -23.95,28.68 0,27.42 30.02,57.51 60.09,87.66l0.41 0.41 0.02 -0.02 0.02 0.02c30.29,30.28 60.51,60.5 88.03,60.5 13.95,0 20.18,-10.08 28.78,-24.01z"/>
  <rect class="fil1" width="497.46" height="497.46"/>
 </g>
</svg>
