<?xml version="1.0" encoding="UTF-8"?>
<!DOCTYPE svg PUBLIC "-//W3C//DTD SVG 1.1//EN" "http://www.w3.org/Graphics/SVG/1.1/DTD/svg11.dtd">
<!-- Creator: CorelDRAW 2021.5 -->
<svg xmlns="http://www.w3.org/2000/svg" xml:space="preserve" width="1962px" height="1958px" version="1.1" style="shape-rendering:geometricPrecision; text-rendering:geometricPrecision; image-rendering:optimizeQuality; fill-rule:evenodd; clip-rule:evenodd"
viewBox="0 0 1523.35 1520.62"
 xmlns:xlink="http://www.w3.org/1999/xlink"
 xmlns:xodm="http://www.corel.com/coreldraw/odm/2003">
 <defs>
  <style type="text/css">
   <![CDATA[
    .str0 {stroke:white;stroke-width:63.13;stroke-miterlimit:22.9256}
    .fil0 {fill:none}
    .fil1 {fill:#3E4245;fill-opacity:0.000000}
   ]]>
  </style>
 </defs>
 <g id="Слой_x0020_1">
  <metadata id="CorelCorpID_0Corel-Layer"/>
  <g id="_2030411488832">
   <g id="_2131703005104">
    <g id="icomoon-ignore">
    </g>
    <path class="fil0 str0" d="M1103.98 907.47c-96.8,96.99 -96.8,193.79 -193.8,193.79 -96.99,0 -193.79,-96.8 -290.8,-193.79 -96.78,-97.01 -193.79,-193.81 -193.79,-290.8 0,-96.8 97.01,-96.8 193.79,-193.8 97.01,-96.99 -193.79,-387.6 -290.79,-387.6 -96.79,0 -290.59,290.61 -290.59,290.61 0,193.99 199.01,586.79 387.59,775.38 188.59,188.58 581.59,387.8 775.38,387.8 0,0 290.81,-194.01 290.81,-290.8 0,-97 -290.81,-387.8 -387.8,-290.81l0 0.02 0 0z"/>
   </g>
  </g>
  <polygon class="fil1" points="0,1518.47 1519.19,1518.47 1519.19,0 0,0 "/>
 </g>
</svg>
