<?xml version="1.0" encoding="UTF-8"?>
<!DOCTYPE svg PUBLIC "-//W3C//DTD SVG 1.1//EN" "http://www.w3.org/Graphics/SVG/1.1/DTD/svg11.dtd">
<!-- Creator: CorelDRAW 2021.5 -->
<svg xmlns="http://www.w3.org/2000/svg" xml:space="preserve" width="1837px" height="1719px" version="1.1" style="shape-rendering:geometricPrecision; text-rendering:geometricPrecision; image-rendering:optimizeQuality; fill-rule:evenodd; clip-rule:evenodd"
viewBox="0 0 2449.96 2291.6"
 xmlns:xlink="http://www.w3.org/1999/xlink"
 xmlns:xodm="http://www.corel.com/coreldraw/odm/2003">
 <defs>
  <style type="text/css">
   <![CDATA[
    .str0 {stroke:white;stroke-width:108.16;stroke-miterlimit:22.9256}
    .fil1 {fill:none}
    .fil0 {fill:#3E4245;fill-opacity:0.000000}
   ]]>
  </style>
 </defs>
 <g id="Слой_x0020_1">
  <metadata id="CorelCorpID_0Corel-Layer"/>
  <polygon class="fil0" points="0,2291.6 2449.96,2291.6 2449.96,0 0,0 "/>
  <g id="_2030404784400">
   <g id="_2131458418016">
    <g id="icomoon-ignore">
    </g>
    <path class="fil1 str0" d="M1394.97 1569.91l0 -137.02c182.93,-103.03 332.22,-360.13 332.22,-617.23 0,-412.84 0,-747.45 -498.34,-747.45 -498.33,0 -498.33,334.61 -498.33,747.45 0,257.1 149.29,514.2 332.22,617.23l0 137.02c-563.57,46.02 -996.68,322.92 -996.68,657.65l2325.47 0c0,-334.73 -433.11,-611.63 -996.56,-657.65l0 0 0 0 0 0z"/>
   </g>
  </g>
 </g>
</svg>
