<?xml version="1.0" encoding="UTF-8"?>
<!DOCTYPE svg PUBLIC "-//W3C//DTD SVG 1.1//EN" "http://www.w3.org/Graphics/SVG/1.1/DTD/svg11.dtd">
<!-- Creator: CorelDRAW 2021.5 -->
<svg xmlns="http://www.w3.org/2000/svg" xml:space="preserve" width="2041px" height="662px" version="1.1" style="shape-rendering:geometricPrecision; text-rendering:geometricPrecision; image-rendering:optimizeQuality; fill-rule:evenodd; clip-rule:evenodd"
viewBox="0 0 2608.75 845.88"
 xmlns:xlink="http://www.w3.org/1999/xlink"
 xmlns:xodm="http://www.corel.com/coreldraw/odm/2003">
 <defs>
  <style type="text/css">
   <![CDATA[
    .fil1 {fill:#CBD8DD;fill-rule:nonzero}
    .fil0 {fill:white;fill-rule:nonzero}
    .fil2 {fill:#3E4245;fill-rule:nonzero;fill-opacity:0.000000}
   ]]>
  </style>
 </defs>
 <g id="Слой_x0020_1">
  <metadata id="CorelCorpID_0Corel-Layer"/>
  <g id="_2956501145040">
   <g id="_2030415132016">
    <g id="_2096124446752">
     <g>
      <path class="fil0" d="M1131.85 831.79l-212.87 0 133.07 -817.23 212.72 0 -132.92 817.23 0 0 0 0zm-391.81 -817.23l-202.79 562.07 -24.02 -121 0 0 -71.57 -367.48c0,0 -8.68,-73.59 -100.86,-73.59l-335.41 0 -3.88 13.95c0,0 102.57,21.22 222.48,93.27l184.83 710.01 221.69 0 338.5 -817.23 -228.97 0 0 0 0 0zm1673.34 817.23l195.37 0 -170.27 -817.23 -171.04 0c-79.01,0 -98.22,60.89 -98.22,60.89l-317.28 756.34 221.69 0 44.46 -121.46 270.35 0 24.94 121.46 0 0 0 0zm-234.09 -289.08l111.87 -305.83 62.89 305.83 -174.76 0zm-310.78 -331.55l30.36 -175.52c0,0 -93.57,-35.64 -191.33,-35.64 -105.5,0 -356.31,46.17 -356.31,270.51 0,211.15 294.35,213.79 294.35,324.56 0,110.93 -263.99,91.1 -351.07,21.21l-31.59 183.45c0,0 94.96,46.15 240.12,46.15 145.17,0 364.24,-75.13 364.24,-279.79 0,-212.39 -296.99,-232.24 -296.99,-324.56 0,-92.49 207.27,-80.57 298.22,-30.37l0 0 0 0 0 0z"/>
     </g>
     <path class="fil1" d="M513.23 455.63l-71.57 -367.48c0,0 -8.68,-73.59 -100.86,-73.59l-335.41 0 -3.88 13.79c0,0 161.14,33.46 315.74,158.65 147.79,119.59 195.98,268.63 195.98,268.63l0 0 0 0z"/>
    </g>
   </g>
   <polygon class="fil2" points="0,828.86 2606.1,828.86 2606.1,8.2 0,8.2 "/>
  </g>
 </g>
</svg>
