<?xml version="1.0" encoding="UTF-8"?>
<!DOCTYPE svg PUBLIC "-//W3C//DTD SVG 1.1//EN" "http://www.w3.org/Graphics/SVG/1.1/DTD/svg11.dtd">
<!-- Creator: CorelDRAW 2021.5 -->
<svg xmlns="http://www.w3.org/2000/svg" xml:space="preserve" width="2099px" height="2103px" version="1.1" style="shape-rendering:geometricPrecision; text-rendering:geometricPrecision; image-rendering:optimizeQuality; fill-rule:evenodd; clip-rule:evenodd"
viewBox="0 0 1829.29 1833.2"
 xmlns:xlink="http://www.w3.org/1999/xlink"
 xmlns:xodm="http://www.corel.com/coreldraw/odm/2003">
 <defs>
  <style type="text/css">
   <![CDATA[
    .str0 {stroke:white;stroke-width:71;stroke-miterlimit:22.9256}
    .fil0 {fill:none}
    .fil1 {fill:#3E4245;fill-opacity:0.000000}
   ]]>
  </style>
 </defs>
 <g id="Слой_x0020_1">
  <metadata id="CorelCorpID_0Corel-Layer"/>
  <g id="_2030121108336">
   <g id="_2131607343184">
    <g id="icomoon-ignore">
    </g>
    <path class="fil0 str0" d="M1535.52 293.56c-163.08,-163.4 -379.97,-253.39 -611.02,-253.39 -475.94,0 -863.36,387.53 -863.36,863.67 0,152.18 39.75,301 115.27,431.68l-122.5 447.73 457.9 -120.19c126.37,68.69 268.27,105.19 412.69,105.19l0.21 0c0,0 0,0 0,0 475.94,0 863.78,-387.42 863.78,-863.67 0,-230.84 -89.88,-447.73 -252.97,-611.02l0 0zm-610.81 1328.91l0 0c-129,0 -255.27,-34.61 -365.6,-99.95l-26.22 -15.73 -271.64 71.21 72.47 -264.92 -16.99 -27.27c-72.15,-114 -110.01,-246.04 -110.01,-381.97 0,-395.91 322.08,-717.99 718.41,-717.99 191.62,0 372.11,74.98 507.61,210.49 135.4,135.81 209.97,315.89 209.97,507.92 -0.31,396.23 -322.4,718.21 -718,718.21l0 0 0 0 0 0zm393.61 -537.82c-21.5,-10.91 -127.64,-63.03 -147.46,-70.06 -19.72,-7.13 -33.98,-11.01 -48.66,10.81 -14.27,21.39 -55.8,70.16 -68.49,84.84 -12.48,14.16 -25.17,16.26 -46.56,5.35 -21.4,-10.9 -91.25,-33.66 -173.58,-107.18 -64.08,-57.27 -107.71,-127.95 -120.19,-149.45 -12.69,-21.5 -1.47,-33.36 9.44,-43.95 9.97,-9.54 21.5,-25.17 32.41,-37.75 10.91,-12.69 14.26,-21.5 21.39,-36.08 7.24,-14.27 3.78,-26.96 -1.67,-37.86 -5.46,-10.81 -48.67,-117.05 -66.29,-160.26 -17.41,-42.26 -35.45,-36.5 -48.76,-37.12 -12.59,-0.63 -26.85,-0.63 -41.12,-0.63 -14.37,0 -37.86,5.35 -57.58,26.85 -19.82,21.5 -75.61,73.83 -75.61,180.07 0,106.24 77.29,208.61 88.2,223.29 10.8,14.37 152.07,232.51 368.75,325.86 51.39,22.12 91.56,35.44 122.81,45.51 51.71,16.36 98.69,14.06 135.82,8.6 41.53,-6.19 127.64,-52.12 145.78,-102.46 18.04,-50.34 18.04,-93.66 12.48,-102.57 -5.03,-9.44 -19.4,-14.9 -41.11,-25.8l0 0 0 0 0 -0.01z"/>
   </g>
  </g>
  <polygon class="fil1" points="0,1829.29 1829.29,1829.29 1829.29,0 0,0 "/>
 </g>
</svg>
